# xmcd
#
# Track frame offsets:
#	150
#	14883
#	31705
#	49393
#	66884
#	88321
#	105352
#	121522
#	137954
#	154331
#	171453
#	187075
#	217355
#
# Disc length: 3179 seconds
#
# Revision: 0
# Processed by: cddbd v1.5.2PL0 Copyright (c) Steve Scherf et al.
# Submitted via: audiograbber 1.83.01
#
DISCID=c60c690d
DTITLE=Marsheaux - e-bay Queen
DYEAR=2004
DGENRE=Electronic
TTITLE0=M.A.R.S.H.E.A.U.X.
TTITLE1=Flash Lights
TTITLE2=Shake Me
TTITLE3=Pure
TTITLE4=Play Boy
TTITLE5=Computer Love
TTITLE6=Tonight
TTITLE7=The Game
TTITLE8=Analyze 
TTITLE9=Ola gurizoun
TTITLE10=Hands On Me
TTITLE11=Pop Corn
TTITLE12=Pop Corn [Video]
EXTD=Greek electro pop. one of the good ones
EXTT0=
EXTT1=
EXTT2=
EXTT3=
EXTT4=
EXTT5=
EXTT6=
EXTT7=
EXTT8=
EXTT9=
EXTT10=
EXTT11=
EXTT12=
PLAYORDER=
